PathFileType	4	(X/Y/Z)	Trial10_KneeL_markers_cropped.trc
DataRate	CameraRate	NumFrames	NumMarkers	Units	OrigDataRate	OrigDataStartFrame	OrigNumFrames
200	200	5	27	m	200	25	101
Frame#	Time	R_ASIS			L_ASIS			Sacral			L_Thigh_Superior			L_Thigh_Posterior			L_Thigh_Inferior			L_Thigh_Lateral			L_Shank_Posterior			L_Shank_Superior			L_Shank_Lateral			L_Shank_Inferior			L_Midfoot_Superior			L_Heel			L_Midfoot_Lateral			L_Toe			R_Thigh_Posterior			R_Thigh_Superior			R_Thigh_Lateral			R_Thigh_Inferior			R_Shank_Posterior			R_Shank_Superior			R_Shank_Lateral			R_Shank_Inferior			R_Midfoot_Superior			R_Heel			R_Midfoot_Lateral			R_Toe
		X1	Y1	Z1	X2	Y2	Z2	X3	Y3	Z3	X4	Y4	Z4	X5	Y5	Z5	X6	Y6	Z6	X7	Y7	Z7	X8	Y8	Z8	X9	Y9	Z9	X10	Y10	Z10	X11	Y11	Z11	X12	Y12	Z12	X13	Y13	Z13	X14	Y14	Z14	X15	Y15	Z15	X16	Y16	Z16	X17	Y17	Z17	X18	Y18	Z18	X19	Y19	Z19	X20	Y20	Z20	X21	Y21	Z21	X22	Y22	Z22	X23	Y23	Z23	X24	Y24	Z24	X25	Y25	Z25	X26	Y26	Z26	X27	Y27	Z27

26	   0.125	    1.15203112954262	    0.97124095794268	    0.66978418927338	    1.10307226285263	    0.99416819630889	    0.41937635589297	    0.93638162373094	    1.03139689573942	    0.59335271787706	    1.12267456988365	    0.78780050382610	    0.31935749805015	    1.05369655712790	    0.75807016579501	    0.32695417801696	    1.15631900322485	    0.69929257744125	    0.31101171992096	    1.08123953338990	    0.67257794739780	    0.31845503797602	    1.03833525715040	    0.49501522362145	    0.29995985362997	    1.07411400992701	    0.42885918028430	    0.29078308439249	    0.98270152514816	    0.45069807948953	    0.29416652996187	    1.02331981902059	    0.39913687760268	    0.28755963852590	    0.90954047603645	    0.20930477437479	    0.33542864092419	    0.75511625458985	    0.27879185846304	    0.39714587084388	    0.80694815235587	    0.21539312985024	    0.30784064821314	    0.96652522861873	    0.09387333363508	    0.30242177824044	    1.06890987846619	    0.75265206815694	    0.72085114931955	    1.14227018927381	    0.75315922912054	    0.70315116569568	    1.07093303603867	    0.65432575316115	    0.70440469940381	    1.14081227287537	    0.65805764491635	    0.69101240977636	    1.00503765082583	    0.33803207931797	    0.66219707826049	    1.07901340521260	    0.32496800526627	    0.64609786361596	    0.99810778862553	    0.27013391275905	    0.64091889385536	    1.06904397868311	    0.26852852555903	    0.62751723544523	    1.09060523557872	    0.08706236947564	    0.53731813214666	    0.92020750057019	    0.04527669817945	    0.50518537962557	    1.01565689329756	    0.01355514266174	    0.57968535436802	    1.21473573360944	    0.04055907043366	    0.54722710816694
27	   0.130	    1.15229512090957	    0.97124863283769	    0.66954139996955	    1.10304421639916	    0.99405866671952	    0.41927181510580	    0.93650082721409	    1.03135018850625	    0.59343444583424	    1.12249552729271	    0.78784041638397	    0.31912887902617	    1.05351191685532	    0.75814430554606	    0.32651843150024	    1.15612356232752	    0.69937564456321	    0.31058666822694	    1.08103569825292	    0.67266673016837	    0.31788759101479	    1.03710967271448	    0.49890323602936	    0.30031505842414	    1.07037807071392	    0.43150589485645	    0.29124698278517	    0.97979994565823	    0.45659451614254	    0.29517562880098	    1.01848010029625	    0.40355875507390	    0.28861264021689	    0.89802144800067	    0.21873493578336	    0.33837825073591	    0.74659658748169	    0.29428052187351	    0.40069259919683	    0.79543975664552	    0.22844989310699	    0.31145514806207	    0.95030570706667	    0.10096186966155	    0.30572864967111	    1.06916006780079	    0.75264562871326	    0.72079370002121	    1.14251537619621	    0.75315702566702	    0.70304741769861	    1.07117703085996	    0.65431380195886	    0.70438057145894	    1.14103955454642	    0.65804987211772	    0.69091168249543	    1.00516161343161	    0.33804115860822	    0.66229296108606	    1.07913005680441	    0.32497216419144	    0.64614554869982	    0.99822028814686	    0.27013860177669	    0.64103870554381	    1.06915145009687	    0.26852396874642	    0.62758648311862	    1.09060519426637	    0.08708806195237	    0.53738165034994	    0.92032620403508	    0.04528390965959	    0.50518045899703	    1.01566083721370	    0.01355201526848	    0.57967261275919	    1.21472655137865	    0.04058587007045	    0.54718872878127
28	   0.135	    1.15266560134416	    0.97134067112085	    0.66895370822844	    1.10290871684211	    0.99397560383032	    0.41909252350060	    0.93657837518490	    1.03132873461122	    0.59350347091029	    1.12221231035329	    0.78789914054701	    0.31882123551483	    1.05323148099363	    0.75821298394181	    0.32605973942125	    1.15584943915523	    0.69948030362045	    0.31012214292275	    1.08075663470239	    0.67275248360338	    0.31730712399148	    1.03607474690261	    0.50281151353237	    0.30063722649583	    1.06676464324543	    0.43418354220476	    0.29180106246316	    0.97719520193739	    0.46264083450467	    0.29618448706743	    1.01384406297307	    0.40812758131259	    0.28971904343795	    0.88689976317501	    0.22872168340207	    0.34146614504576	    0.73869410226159	    0.31017637521129	    0.40422590754508	    0.78446028347357	    0.24188336730312	    0.31527160286580	    0.93436819424805	    0.10858416577658	    0.30955330180113	    1.06942979128595	    0.75265243512719	    0.72073934394061	    1.14275624344865	    0.75317395006654	    0.70286416927895	    1.07144578714429	    0.65430785072923	    0.70434351662979	    1.14128550915169	    0.65806591956886	    0.69074562934004	    1.00527375223653	    0.33807344431946	    0.66242172829090	    1.07922737656115	    0.32500206679019	    0.64622585162904	    0.99833406633984	    0.27015446953092	    0.64128144035992	    1.06925034348641	    0.26853618036399	    0.62773696539801	    1.09060167424108	    0.08707696989277	    0.53741402297756	    0.92050467513471	    0.04527778212935	    0.50516402205422	    1.01564967285790	    0.01353684591979	    0.57967547263735	    1.21471335349209	    0.04062637963876	    0.54715448740317
29	   0.140	    1.15292038377599	    0.97137692341945	    0.66836942228835	    1.10271354398281	    0.99391455549234	    0.41881924961479	    0.93661113840111	    1.03129394653148	    0.59353433420236	    1.12189848106063	    0.78797901848323	    0.31843656155519	    1.05293054701220	    0.75827568555726	    0.32564128760875	    1.15556562300437	    0.69958173559860	    0.30962233351346	    1.08047267664299	    0.67283059247390	    0.31674697230395	    1.03524305664496	    0.50671169378523	    0.30089849690654	    1.06327841803173	    0.43688595551742	    0.29250973054815	    0.97492372289439	    0.46871725495304	    0.29716221586634	    1.00940943802809	    0.41283797912695	    0.29090510706690	    0.87607001883769	    0.23914806061270	    0.34480307741370	    0.73146633635944	    0.32652994799564	    0.40789987782805	    0.77396390166098	    0.25585288679862	    0.31927960554733	    0.91859641448703	    0.11681507505423	    0.31373994132520	    1.06962784121190	    0.75268084354720	    0.72063002800623	    1.14293672783770	    0.75320776377310	    0.70265399979418	    1.07164296241629	    0.65433243965008	    0.70429852454182	    1.14146725377280	    0.65810158894294	    0.69059548755704	    1.00531112447382	    0.33813395636910	    0.66264886423899	    1.07925001035528	    0.32506308334742	    0.64638664325191	    0.99838709937824	    0.27016914963285	    0.64173841428933	    1.06927430786784	    0.26855486594920	    0.62803248136173	    1.09058330721264	    0.08705686679080	    0.53745441657396	    0.92041671753760	    0.04525082724951	    0.50517574365343	    1.01562760563356	    0.01346841070151	    0.57970408709639	    1.21468130283609	    0.04071679108235	    0.54712897572675
30	   0.145	    1.15297964835560	    0.97133493152414	    0.66796597381631	    1.10251314332094	    0.99385037374341	    0.41845755047187	    0.93661903891864	    1.03124094741842	    0.59348003560431	    1.12159253834994	    0.78807800670883	    0.31798847718768	    1.05264461190623	    0.75833742989705	    0.32527442176447	    1.15527365515257	    0.69969438627881	    0.30902874141282	    1.08020535085725	    0.67292589631651	    0.31620048207840	    1.03449172221227	    0.51064890509882	    0.30109892458132	    1.05979378192291	    0.43967829750619	    0.29325815831882	    0.97278851852802	    0.47491043458007	    0.29814446119983	    1.00507600315347	    0.41774093752473	    0.29208943545166	    0.86556883366803	    0.24997233569693	    0.34826858573778	    0.72488270064351	    0.34331031180212	    0.41183190059603	    0.76390879315382	    0.27034418553301	    0.32348435389822	    0.90299257090633	    0.12576628794033	    0.31800672255884	    1.06970513572553	    0.75272026364104	    0.72044648180808	    1.14301766375698	    0.75325543705237	    0.70249177725899	    1.07173507163864	    0.65437318253831	    0.70424887833719	    1.14155518634682	    0.65814570976927	    0.69051582976292	    1.00533433483890	    0.33820781785979	    0.66296605939016	    1.07925377383650	    0.32514791990517	    0.64657311811460	    0.99844589809158	    0.27016677288420	    0.64234743321731	    1.06927930042303	    0.26856779678439	    0.62841831019205	    1.09055091050794	    0.08703414803397	    0.53750581326882	    0.92035243524265	    0.04523646598092	    0.50518573036108	    1.01559338538045	    0.01337671523604	    0.57968915529757	    1.21464011654368	    0.04084541106116	    0.54710821148780
